# xmcd
#
# Track frame offsets:
#	150
#	14336
#	33034
#	54968
#	74261
#	91732
#	109225
#	130875
#	150043
#	171894
#	190932
#	206501
#	222206
#	237473
#	258726
#	278104
#
# Disc length: 4032 seconds
#
# Revision: 0
# Processed by: cddbd v1.5.1PL0 Copyright (c) Steve Scherf et al.
# Submitted via: EasyCDDAExtractor 4.6.9.1
#
DISCID=d60fbe10
DTITLE=Fagner - Especial nr 1
DYEAR=2001
DGENRE=Duet
TTITLE0=Canteiros
TTITLE1=Borbulhas de Amor
TTITLE2=Romance do Deserto
TTITLE3=Revelação
TTITLE4=Terral
TTITLE5=Eternas Ondas
TTITLE6=Amor Escondido
TTITLE7=Cabecinha no Ombro
TTITLE8=Planos
TTITLE9=Deslizes
TTITLE10=Caboclo Sonhador
TTITLE11=Pelo Vinho e Pelo Pão
TTITLE12=Ave Coração
TTITLE13=Jura Secreta
TTITLE14=Guerreiro Menino
TTITLE15=Cartaz
EXTD=
EXTT0=
EXTT1=
EXTT2=
EXTT3=
EXTT4=
EXTT5=
EXTT6=
EXTT7=
EXTT8=
EXTT9=
EXTT10=
EXTT11=
EXTT12=
EXTT13=
EXTT14=
EXTT15=
PLAYORDER=
